<svg width="278" height="36" viewBox="0 0 278 36" fill="none" xmlns="http://www.w3.org/2000/svg">
<path d="M197.441 35H195.701L202.315 16.8182H204.091L210.705 35H208.965L203.265 18.9755H203.141L197.441 35ZM198.693 28.0309H207.713V29.5224H198.693V28.0309ZM219.148 35H213.821V16.8182H219.467C221.201 16.8182 222.684 17.1792 223.915 17.9013C225.152 18.6233 226.099 19.6591 226.756 21.0085C227.413 22.358 227.741 23.9767 227.741 25.8647C227.741 27.7705 227.404 29.407 226.729 30.7741C226.061 32.1354 225.084 33.18 223.8 33.908C222.521 34.636 220.971 35 219.148 35ZM215.481 33.5085H219.05C220.613 33.5085 221.921 33.2008 222.974 32.5852C224.028 31.9697 224.818 31.0908 225.344 29.9485C225.871 28.8062 226.135 27.445 226.135 25.8647C226.129 24.2963 225.868 22.9469 225.353 21.8164C224.844 20.686 224.087 19.8189 223.081 19.2152C222.08 18.6115 220.843 18.3097 219.37 18.3097H215.481V33.5085ZM231.765 16.8182H233.683L240.279 32.6562H240.439L247.035 16.8182H248.953V35H247.39V20.3249H247.248L241.114 35H239.604L233.47 20.3249H233.328V35H231.765V16.8182ZM255.447 16.8182V35H253.787V16.8182H255.447ZM274.441 16.8182V35H272.825L262.083 19.7745H261.941V35H260.281V16.8182H261.888L272.666 32.0614H272.808V16.8182H274.441Z" fill="black"/>
<path fill-rule="evenodd" clip-rule="evenodd" d="M0 0.213521L13.1 0.138672V2.53386H2.11429V16.8729H10.9893V19.0685L2.09643 18.9366L2.12857 35.0471C1.43214 35.0578 0.425 35.0721 0.00357143 35.0792V0.213521H0Z" fill="#DD0505"/>
<path fill-rule="evenodd" clip-rule="evenodd" d="M61.6893 35.1544V0H63.8036V16.8661H74.3678V0H76.4786V32.8911H87.8857V35.1472L74.3678 35.1437V18.9762H63.8036V35.1579L63.6714 35.1615L61.6893 35.1544Z" fill="#DD0505"/>
<path fill-rule="evenodd" clip-rule="evenodd" d="M31.2357 35.4215L29.5428 28.6743H17.7964L15.925 35.4215H13.6143L23.0464 0.199363L24.5107 0.160156L31.125 25.4771L33.7178 35.425H31.2357V35.4215ZM18.0535 26.1365L28.9535 26.1009L23.7143 4.63331L18.05 26.1365H18.0535Z" fill="#DD0505"/>
<path fill-rule="evenodd" clip-rule="evenodd" d="M46.9929 34.98C45.4607 34.98 44.0107 34.4346 42.5572 33.3761C40.4786 31.8577 39.5429 29.5195 39.6393 26.5683H41.8179C41.8143 26.9889 41.8072 26.8463 41.8 26.9818C41.7286 28.6712 42.2786 30.2252 43.3429 31.3337C44.3179 32.3495 45.6429 32.9163 47.0714 32.9163H47.225C50.15 32.845 52.2643 30.546 52.4822 27.2027C52.725 23.4745 51.0822 20.7051 47.5964 18.9764C46.7036 18.5344 45.8393 18.0461 44.925 17.5258L44.7536 17.4295C40.6643 15.1127 39.0714 11.6269 39.7429 6.45514C40.2036 2.90513 43.4357 0.125 47.1072 0.125H47.2857C51.1179 0.217671 54.1036 3.56808 54.3929 6.61553C54.4714 7.43531 54.5143 8.01629 54.5393 8.43687H52.3929V8.55449C52.3929 7.89154 52.2143 4.51974 49.9857 3.15819C49.0393 2.57722 48.0072 2.27069 46.9786 2.27069C44.2357 2.27069 42.0357 4.40212 41.7393 7.33908C41.3322 11.3596 42.9607 14.3215 46.575 16.1428C49.1572 17.4438 51.0607 18.7946 52.5572 20.3986C54.225 22.1843 55.0107 25.8055 54.3857 28.828C54.0143 30.6351 52.9964 33.041 50.2643 34.2386C49.1393 34.734 48.0357 34.9835 46.9893 34.9835L46.9929 34.98Z" fill="#DD0505"/>
<path d="M87.0428 0H84.9285V25.7233H87.0428V0Z" fill="#DD0505"/>
<path fill-rule="evenodd" clip-rule="evenodd" d="M120.714 34.9113H120.536H120.057H119.907L118.311 34.8793V0.419922H121.668L130.564 23.2562V0.419922H134.368V35.0004H131.243L122.536 12.1963V34.9648L120.714 34.9113Z" fill="#DD0505"/>
<path fill-rule="evenodd" clip-rule="evenodd" d="M104.586 35.0548C103.582 35.0548 102.579 34.8659 101.607 34.4952C98.4142 33.2762 96.4821 30.521 96.4428 27.1314C96.4178 24.9216 96.4214 22.6796 96.4285 20.509C96.4285 19.9316 96.4321 19.3542 96.4321 18.7732V17.6255C96.4321 16.6739 96.4285 15.7222 96.4249 14.7705C96.4214 12.7282 96.4178 10.6146 96.4321 8.53663C96.4642 4.16684 99.7964 0.566931 104.011 0.338818C104.157 0.331689 104.3 0.328125 104.446 0.328125C108.618 0.328125 112.107 3.44686 112.557 7.58497C112.725 9.13543 112.707 10.6752 112.693 12.1651C112.689 12.6391 112.682 13.1132 112.686 13.5872L112.693 16.0145C112.707 19.4861 112.721 23.0788 112.675 26.6182C112.618 31.3479 109.061 35.0512 104.582 35.0512L104.586 35.0548ZM104.529 4.63732C102.146 4.63732 100.536 6.20204 100.525 8.59723C100.489 14.5745 100.489 20.6088 100.525 26.6645C100.539 29.1666 102.132 30.7812 104.489 30.7812H104.546C106.989 30.7812 108.4 29.2842 108.421 26.6788C108.439 24.5972 108.436 22.4052 108.432 20.3557C108.432 20.0599 108.432 19.8175 108.432 19.397L108.425 17.7039C108.425 16.763 108.425 15.8683 108.429 14.9274C108.432 12.8351 108.439 10.7394 108.418 8.61861C108.393 6.0666 106.996 4.63732 104.586 4.63732H104.536H104.529Z" fill="#DD0505"/>
<path fill-rule="evenodd" clip-rule="evenodd" d="M174.507 35.0004V27.8327H160.986L162.743 24.2898L175.025 0.419922H178.311V23.6126H180V27.8291H178.311V34.9969H174.507V35.0004ZM174.507 23.6126V9.96503L167.225 23.6162H174.507V23.6126Z" fill="#DD0505"/>
<path fill-rule="evenodd" clip-rule="evenodd" d="M143.764 35.4223L143.436 35.1194C142.246 34.6239 142.139 33.1448 142.093 32.546C141.925 30.3646 142.146 28.0764 142.707 26.1802C143.271 24.2662 144.293 22.4627 145.736 20.8659C146.604 19.9035 147.536 19.016 148.439 18.1677C149.118 17.5297 149.761 16.9202 150.375 16.2858C150.725 15.9222 151.089 15.5266 151.457 15.1096C152.486 13.9619 153.714 12.4257 154.146 10.7041C154.257 10.2693 154.314 9.82377 154.318 9.38536C154.325 8.74736 154.279 8.13074 154.179 7.58897C153.818 5.64645 152.007 4.29202 150.611 4.29202C148.818 4.29202 146.811 5.42546 146.557 7.32165C146.543 7.44284 146.532 7.85273 146.539 8.18777L146.568 9.92L142.364 10.1125L142.393 8.21628C142.393 8.07371 142.404 7.61748 142.436 7.28244C142.557 3.79303 145.629 0.210938 150.614 0.210938C154.346 0.210938 158.229 3.03027 158.425 8.42301C158.493 10.2408 158.193 12.0087 157.554 13.5342C156.882 15.1452 155.796 16.4711 154.725 17.658C153.629 18.8734 152.454 20.0033 151.314 21.094C150.675 21.707 150.014 22.3415 149.389 22.9723C148.889 23.4713 148.493 23.9276 148.175 24.3624C147.018 25.9449 146.332 27.9659 146.254 30.0545C146.243 30.3254 146.279 30.5999 146.286 30.8815L158.454 30.9171V35.4295H143.768L143.764 35.4223Z" fill="#DD0505"/>
</svg>
