<?xml version="1.0" standalone="no"?>
<!DOCTYPE svg PUBLIC "-//W3C//DTD SVG 20010904//EN"
 "http://www.w3.org/TR/2001/REC-SVG-20010904/DTD/svg10.dtd">
<svg version="1.0" xmlns="http://www.w3.org/2000/svg"
 width="526.000000pt" height="198.000000pt" viewBox="0 0 526.000000 198.000000"
 preserveAspectRatio="xMidYMid meet">

<g transform="translate(0.000000,198.000000) scale(0.100000,-0.100000)"
fill="#000000" stroke="none">
<path d="M3552 1970 c-24 -5 -68 -21 -99 -35 -30 -14 -61 -25 -67 -25 -6 0
-44 -16 -84 -35 -121 -58 -201 -157 -239 -296 -16 -57 -18 -117 -18 -589 1
-583 5 -635 65 -756 74 -150 248 -232 470 -221 101 5 181 28 255 76 22 14 63
36 90 50 61 31 155 122 184 180 33 64 51 176 58 363 l6 168 -211 0 -212 0 0
-25 c0 -24 -2 -25 -70 -25 l-69 0 -4 -157 c-1 -87 -3 74 -2 357 0 283 1 417 2
298 l3 -218 204 0 c113 0 211 -3 220 -6 13 -5 16 2 16 35 l0 41 61 0 62 0 -6
203 c-5 213 -22 329 -58 399 -44 87 -135 160 -245 199 -67 23 -242 34 -312 19z
m169 -89 c79 -25 137 -61 186 -114 87 -95 111 -190 120 -474 l6 -193 -201 0
-202 0 0 213 c0 116 -5 229 -10 249 -17 62 -77 77 -127 34 l-28 -24 -3 -554
c-2 -304 0 -577 3 -606 8 -64 32 -92 78 -92 75 0 86 36 87 283 l0 177 200 0
200 0 0 -74 c0 -130 -20 -324 -40 -388 -25 -81 -79 -151 -158 -205 -92 -62
-153 -78 -297 -77 -96 1 -132 5 -179 23 -168 61 -238 146 -273 333 -16 81 -18
159 -18 598 0 549 2 575 56 682 64 126 168 200 324 228 68 12 205 3 276 -19z"/>
<path d="M150 1915 c0 -24 -2 -25 -70 -25 l-70 0 0 -920 0 -920 220 0 220 0 0
35 0 35 60 0 60 0 0 345 0 345 64 0 65 0 3 38 3 37 63 3 62 3 -5 -38 c-3 -21
-23 -193 -45 -383 -22 -190 -42 -362 -45 -382 l-5 -38 224 0 225 0 7 35 c6 35
7 35 59 35 64 0 61 -6 70 143 4 59 10 107 15 107 4 0 10 -46 14 -102 4 -57 9
-129 13 -160 l6 -58 221 0 222 0 -4 35 -4 35 56 0 56 0 0 -35 0 -35 180 0 180
0 0 35 0 35 65 0 65 0 1 98 1 97 35 -133 36 -132 193 0 194 0 0 35 0 35 60 0
60 0 0 910 0 910 -175 0 -175 0 0 -25 c0 -24 -2 -25 -70 -25 l-69 0 -3 -127
-3 -128 -44 153 -44 152 -173 0 -174 0 0 -25 c0 -24 -2 -25 -70 -25 l-70 0 0
-792 c0 -435 -2 -789 -5 -787 -3 4 -215 1598 -215 1622 0 4 -136 6 -302 5
l-303 -3 -3 -22 c-3 -20 -10 -22 -70 -25 l-67 -3 -56 -481 c-31 -264 -59 -487
-62 -495 -3 -7 -6 61 -6 154 l-1 167 -125 0 -125 0 0 135 0 134 83 3 82 3 3
38 3 37 60 0 59 0 0 180 0 180 -355 0 -355 0 0 -25z m565 -220 l0 -170 -142
-3 -143 -3 0 -179 0 -180 125 0 125 0 0 -165 0 -165 -125 0 -125 0 0 -380 0
-380 -200 0 -200 0 0 900 0 900 343 -2 342 -3 0 -170z m835 165 c0 -6 52 -405
115 -888 63 -483 115 -884 115 -890 0 -9 -53 -12 -199 -12 l-200 0 -5 53 c-3
28 -9 102 -13 162 l-8 110 -81 3 -82 3 -6 -43 c-3 -24 -9 -93 -12 -155 -4 -61
-10 -116 -14 -122 -4 -8 -68 -11 -206 -9 l-200 3 42 355 c23 195 70 599 105
898 l63 542 293 0 c189 0 293 -4 293 -10z m831 -427 l124 -438 3 438 2 437
165 0 165 0 0 -900 0 -900 -175 0 -174 0 -15 52 c-8 29 -58 220 -111 423 -53
204 -100 379 -105 390 -5 12 -9 -153 -9 -422 l-1 -443 -160 0 -160 0 0 900 0
900 164 0 163 0 124 -437z"/>
<path d="M1260 1458 c0 -7 -7 -67 -15 -133 -8 -65 -24 -209 -35 -320 -11 -110
-22 -224 -26 -252 l-5 -53 86 0 c67 0 86 3 82 13 -3 7 -17 166 -32 352 -30
384 -32 405 -45 405 -6 0 -10 -6 -10 -12z"/>
<path d="M4282 1915 c5 -25 5 -25 -74 -25 -71 0 -79 -2 -74 -17 3 -10 71 -280
151 -599 l145 -581 0 -322 0 -321 200 0 200 0 0 35 0 35 60 0 60 0 0 325 0
324 150 574 c83 315 150 579 150 585 0 9 -50 12 -190 12 l-190 0 0 -25 c0 -24
-2 -25 -69 -25 l-68 0 -13 -77 c-7 -43 -16 -84 -20 -91 -3 -7 -14 39 -24 103
l-18 115 -190 0 -190 0 4 -25z m262 -212 c15 -93 36 -242 47 -333 34 -268 36
-270 68 -47 19 138 68 427 87 520 l6 27 179 0 c98 0 179 -2 179 -4 0 -2 -67
-262 -150 -578 l-150 -573 0 -322 0 -323 -180 0 -180 0 0 317 0 316 -145 575
c-80 315 -145 578 -145 583 0 5 78 9 179 9 l178 0 27 -167z"/>
</g>
</svg>
