<?xml version="1.0" standalone="no"?>
<!DOCTYPE svg PUBLIC "-//W3C//DTD SVG 20010904//EN"
 "http://www.w3.org/TR/2001/REC-SVG-20010904/DTD/svg10.dtd">
<svg version="1.0" xmlns="http://www.w3.org/2000/svg"
 width="1002.000000pt" height="198.000000pt" viewBox="0 0 1002.000000 198.000000"
 preserveAspectRatio="xMidYMid meet">

<g transform="translate(0.000000,198.000000) scale(0.100000,-0.100000)"
fill="#000000" stroke="none">
<path d="M3430 1000 l0 -980 60 0 60 0 0 450 0 450 295 0 295 0 0 -450 0 -450
375 0 375 0 0 60 0 60 -317 2 -318 3 -3 918 -2 917 -55 0 -55 0 0 -470 0 -470
-295 0 -295 0 0 470 0 470 -60 0 -60 0 0 -980z"/>
<path d="M4730 1265 l0 -715 55 0 55 0 0 715 0 715 -55 0 -55 0 0 -715z"/>
<path d="M0 1000 l0 -970 62 0 61 0 -4 447 -4 448 248 -4 247 -3 0 61 0 61
-245 0 -245 0 0 400 0 400 305 0 305 0 0 65 0 65 -365 0 -365 0 0 -970z"/>
<path d="M1275 1943 c-9 -39 -505 -1894 -511 -1915 -5 -16 2 -18 59 -18 l64 0
50 183 49 182 330 3 329 2 46 -182 45 -183 68 -3 68 -3 -6 28 c-4 15 -118 456
-255 978 l-247 950 -41 3 c-37 3 -41 1 -48 -25z m189 -806 c77 -314 141 -582
144 -595 l4 -22 -301 0 c-234 0 -301 3 -301 13 -1 19 304 1177 310 1177 3 0
68 -258 144 -573z"/>
<path d="M2496 1951 c-136 -45 -239 -153 -275 -289 -17 -63 -15 -256 4 -326
44 -168 133 -257 394 -396 138 -74 210 -140 258 -238 38 -75 38 -77 38 -196 0
-112 -2 -126 -28 -182 -53 -115 -147 -178 -267 -178 -157 1 -268 106 -293 279
l-11 75 -54 0 -55 0 6 -78 c8 -115 38 -185 111 -258 139 -138 305 -168 480
-86 83 39 140 97 182 185 73 156 62 389 -26 532 -47 77 -179 180 -350 275
-124 69 -155 93 -207 164 -63 85 -86 171 -81 294 5 117 29 179 91 240 115 113
296 114 408 2 37 -37 51 -61 68 -116 11 -38 23 -86 26 -106 l6 -38 54 0 55 0
0 40 c0 59 -19 139 -47 194 -35 69 -126 156 -198 191 -80 38 -201 45 -289 16z"/>
<path d="M8298 1960 c-129 -22 -235 -86 -301 -181 -49 -72 -64 -124 -73 -253
l-7 -106 55 0 c30 0 83 3 117 6 l61 7 0 66 c0 96 14 134 65 179 138 122 327
56 366 -127 22 -106 -5 -215 -82 -328 -18 -26 -126 -143 -239 -258 -124 -128
-218 -233 -239 -268 -81 -138 -111 -259 -111 -448 0 -146 10 -183 58 -218 30
-21 37 -21 436 -21 l406 0 0 119 c0 99 -3 120 -16 125 -9 3 -159 6 -335 6
l-319 0 0 53 c0 73 24 166 61 240 25 49 75 106 243 277 303 308 355 395 364
615 2 65 -1 134 -7 167 -37 176 -176 316 -345 347 -66 12 -89 12 -158 1z"/>
<path d="M5703 1945 c-79 -22 -130 -51 -191 -108 -63 -61 -97 -115 -123 -198
-18 -57 -19 -101 -19 -647 0 -465 3 -598 14 -638 33 -126 115 -221 243 -281
64 -31 90 -37 160 -41 196 -10 349 81 433 259 16 36 35 91 41 122 7 38 9 250
7 615 -3 553 -3 557 -26 622 -47 130 -147 234 -270 281 -74 27 -198 34 -269
14z m212 -239 c42 -18 81 -58 103 -106 13 -30 15 -107 16 -595 1 -592 0 -602
-46 -668 -65 -93 -247 -98 -333 -10 -64 66 -65 75 -65 668 0 590 1 603 62 662
18 18 49 39 68 47 45 19 151 20 195 2z"/>
<path d="M6580 995 l0 -955 53 0 c28 0 82 -3 120 -7 l67 -6 0 634 1 634 241
-632 241 -633 84 0 83 0 0 960 0 960 -100 0 -100 0 0 -632 c0 -347 -3 -629 -6
-625 -3 3 -115 286 -249 629 l-242 623 -97 3 -96 3 0 -956z"/>
<path d="M9526 1542 c-115 -224 -290 -566 -388 -759 l-180 -353 376 0 376 0 0
-200 0 -200 105 0 105 0 0 200 0 200 45 0 45 0 0 115 0 115 -45 0 -45 0 0 645
0 645 -92 0 -93 0 -209 -408z m184 -502 l0 -380 -201 0 c-164 0 -200 2 -197
14 3 14 391 746 396 746 1 0 2 -171 2 -380z"/>
</g>
</svg>
