<?xml version="1.0" standalone="no"?>
<!DOCTYPE svg PUBLIC "-//W3C//DTD SVG 20010904//EN"
 "http://www.w3.org/TR/2001/REC-SVG-20010904/DTD/svg10.dtd">
<svg version="1.0" xmlns="http://www.w3.org/2000/svg"
 width="889.000000pt" height="194.000000pt" viewBox="0 0 889.000000 194.000000"
 preserveAspectRatio="xMidYMid meet">

<g transform="translate(0.000000,194.000000) scale(0.100000,-0.100000)"
fill="#000000" stroke="none">
<path d="M7930 1876 l0 -46 -60 0 -60 0 0 -910 0 -910 210 0 210 0 0 25 c0 24
3 25 60 25 57 0 60 -1 60 -25 l0 -25 195 0 195 0 0 25 c0 24 2 25 71 25 l70 0
-3 388 -3 387 -29 53 c-29 52 -64 85 -120 114 l-29 15 37 13 c57 19 102 64
123 123 15 43 18 84 18 237 0 164 -3 193 -23 257 -38 123 -116 202 -228 230
-43 11 -143 16 -364 20 -181 3 -310 9 -317 15 -10 8 -13 0 -13 -36z m584 -6
c68 -7 127 -18 155 -31 133 -58 191 -195 191 -447 0 -227 -39 -323 -142 -348
-27 -6 -27 -6 -13 22 33 67 46 299 25 432 -26 155 -103 264 -211 297 -58 17
-286 34 -461 35 l-108 0 0 25 0 25 228 0 c125 0 276 -5 336 -10z m-233 -360
c11 0 31 -11 44 -25 24 -23 25 -29 25 -165 0 -162 -9 -193 -61 -204 -63 -12
-59 -24 -59 200 0 184 2 205 16 200 9 -3 24 -6 35 -6z m468 -548 c29 -18 54
-45 75 -82 l31 -55 3 -372 3 -373 -60 0 -60 0 -3 337 -3 338 -28 57 c-31 62
-71 98 -143 127 l-49 18 40 7 c22 4 51 14 65 22 32 18 73 11 129 -24z m-424
-163 c19 -19 20 -35 23 -369 l3 -350 -61 0 -60 0 0 376 0 376 38 -7 c20 -3 46
-15 57 -26z"/>
<path d="M123 1865 l6 -35 -65 0 -65 0 6 -57 c4 -32 46 -440 94 -908 l87 -850
259 0 260 0 3 23 c3 20 9 22 71 22 l68 0 18 162 c21 183 22 183 56 -54 l23
-158 263 0 263 0 0 25 c0 24 2 25 70 25 56 0 70 3 70 15 0 40 170 1679 175
1683 3 3 5 -389 5 -871 l0 -877 205 0 205 0 0 25 c0 24 2 25 65 25 63 0 65 -1
65 -25 l0 -25 205 0 205 0 0 25 c0 24 2 25 65 25 63 0 65 -1 65 -25 l0 -25
215 0 215 0 0 25 c0 24 2 25 69 25 l69 0 7 108 c4 59 10 121 14 137 7 29 8 29
14 -15 3 -25 9 -98 13 -162 l6 -118 214 0 214 0 -6 25 -6 25 76 0 c42 0 76 4
76 8 0 5 -40 318 -90 695 -49 378 -90 689 -90 692 0 3 50 5 110 5 l110 0 0
-725 0 -725 210 0 210 0 0 25 c0 24 2 25 70 25 l70 0 0 700 0 700 55 0 c54 0
55 0 55 30 l0 30 70 0 70 0 0 -755 0 -755 365 0 365 0 0 25 c0 24 2 25 70 25
l70 0 0 190 0 189 -152 3 -153 3 -3 162 -2 163 60 0 c57 0 60 1 60 25 0 24 2
25 70 25 l70 0 0 185 0 185 -130 0 -130 0 0 135 0 135 70 0 70 0 0 30 0 30 70
0 c64 0 70 -2 74 -22 5 -22 196 -1467 196 -1481 0 -4 144 -7 320 -7 l320 0 0
25 c0 24 2 25 68 25 l68 0 93 803 c51 441 95 804 97 806 2 2 4 -370 4 -827 l0
-832 360 0 360 0 0 25 c0 24 2 25 70 25 l70 0 0 190 0 190 -150 0 -150 0 0
165 0 165 55 0 c52 0 55 1 55 25 0 23 3 24 73 27 l72 3 3 183 2 182 -130 0
-130 0 0 135 0 135 64 0 c63 0 65 1 68 28 3 26 5 27 71 30 l67 3 0 189 0 190
-355 0 -355 0 0 -35 0 -35 -55 0 -56 0 7 35 6 35 -231 0 c-221 0 -231 -1 -231
-19 0 -43 -10 -51 -65 -51 -52 0 -53 -1 -59 -32 -3 -18 -8 -79 -12 -135 -4
-57 -10 -103 -14 -103 -4 0 -12 66 -19 148 -7 81 -15 157 -18 170 l-5 22 -230
0 -229 0 7 -35 6 -35 -46 0 c-46 0 -46 0 -46 35 l0 35 -360 0 -360 0 0 -34 0
-34 -60 -4 -59 -3 -3 35 -3 35 -462 3 -463 2 0 -35 0 -35 -60 0 -59 0 -3 -87
-3 -88 -14 105 c-7 58 -18 113 -23 123 -8 16 -33 17 -313 17 -294 0 -305 -1
-305 -19 0 -43 -10 -51 -65 -51 l-54 0 -6 -42 c-3 -24 -46 -387 -95 -807 -49
-420 -92 -766 -95 -769 -3 -3 -5 376 -5 841 l0 847 -215 0 -215 0 0 -35 0 -35
-55 0 -55 0 0 35 0 35 -215 0 -215 0 0 -35 0 -35 -60 0 -60 0 0 35 0 35 -210
0 -209 0 -7 -35 c-6 -35 -7 -35 -59 -35 -64 0 -59 9 -76 -154 -14 -137 -23
-129 -33 29 -4 61 -9 129 -12 153 l-6 42 -224 0 -223 0 -7 -35 c-6 -35 -7 -35
-59 -35 -64 0 -59 10 -77 -160 -15 -145 -20 -128 -33 98 l-7 132 -215 0 -216
0 6 -35z m418 -177 c18 -248 17 -316 -9 -581 -12 -120 -25 -274 -28 -343 -4
-68 -10 -122 -13 -119 -3 4 -24 270 -46 593 l-40 587 -128 3 c-70 1 -127 7
-127 11 0 5 -3 16 -6 25 -5 14 15 16 189 16 l194 0 14 -192z m623 150 c3 -24
12 -131 20 -240 13 -169 13 -216 0 -345 -22 -234 -44 -532 -44 -598 0 -33 -4
-55 -8 -50 -5 6 -17 134 -26 285 -19 306 -52 769 -62 873 l-6 67 -149 0 c-84
0 -149 4 -149 9 0 40 5 41 215 41 l204 0 5 -42z m606 32 c0 -6 -40 -407 -90
-893 -49 -485 -90 -885 -90 -889 0 -5 -27 -8 -60 -8 -59 0 -59 0 -55 28 5 24
175 1696 175 1715 0 4 -61 7 -135 7 -75 0 -135 4 -135 9 0 40 6 41 201 41 122
0 189 -4 189 -10z m550 -302 c0 -172 3 -330 6 -350 l7 -38 -67 0 -66 0 0 325
0 325 -135 0 -135 0 0 25 0 25 195 0 195 0 0 -312z m540 -588 l0 -900 -60 0
-60 0 0 875 0 875 -135 0 -135 0 0 25 0 25 195 0 195 0 0 -900z m945 878 c3
-13 54 -405 115 -873 61 -467 113 -862 116 -877 l6 -28 -66 0 -65 0 -6 33 c-3
17 -52 394 -110 837 -58 443 -107 822 -111 843 l-6 37 -232 0 -233 0 5 25 4
25 289 0 289 0 5 -22z m1085 -148 l0 -170 -60 0 -59 0 -3 143 -3 142 -382 3
-383 2 0 25 0 25 445 0 445 0 0 -170z m840 146 c0 -13 -4 -26 -10 -28 -6 -2
-6 -27 0 -68 5 -36 10 -100 10 -142 l0 -78 -60 0 -59 0 -3 143 -3 142 -277 3
c-261 2 -278 3 -278 20 0 10 3 22 7 25 3 4 156 7 340 7 l333 0 0 -24z m544 2
c3 -13 15 -123 26 -244 l21 -221 -20 -254 c-11 -140 -23 -312 -27 -382 -4 -70
-11 -130 -15 -133 -5 -3 -9 17 -9 45 0 81 -74 943 -96 1114 l-6 47 -144 0
-144 0 0 25 0 25 205 0 c204 0 205 0 209 -22z m641 -5 c-6 -33 -205 -1742
-205 -1760 0 -9 -18 -13 -59 -13 l-59 0 5 38 c26 197 198 1704 194 1707 -2 3
-70 5 -151 5 l-147 0 5 25 4 25 209 0 209 0 -5 -27z m815 -143 l0 -170 -60 0
-60 0 0 145 0 145 -275 0 -275 0 0 25 0 25 335 0 335 0 0 -170z m-3090 -940
l0 -690 -60 0 -60 0 0 690 0 690 60 0 60 0 0 -690z m810 545 l0 -145 130 0
130 0 0 -165 0 -165 -60 0 -60 0 0 140 0 140 -130 0 -130 0 0 170 0 170 60 0
60 0 0 -145z m2010 0 l0 -145 130 0 130 0 -2 -162 -3 -163 -60 0 -60 0 -3 138
-3 137 -129 0 -130 0 0 170 0 170 65 0 65 0 0 -145z m-4040 -197 c11 -142 20
-291 20 -332 0 -41 5 -78 10 -81 6 -3 10 -15 10 -26 0 -17 -7 -19 -70 -19
l-70 0 0 38 c0 76 72 720 77 692 1 -8 12 -131 23 -272z m-2570 -426 l25 -217
-24 -197 -24 -198 -58 0 c-58 0 -58 0 -53 28 9 52 94 760 94 788 0 15 3 24 8
20 4 -4 18 -105 32 -224z m1470 -267 l0 -345 -60 0 -60 0 0 345 0 345 60 0 60
0 0 -345z m3130 170 l0 -175 155 0 155 0 0 -170 0 -170 -60 0 -60 0 0 145 0
145 -155 0 -155 0 0 200 0 200 60 0 60 0 0 -175z m2010 0 l0 -175 150 0 150 0
0 -170 0 -170 -60 0 -60 0 0 145 0 145 -155 0 -155 0 0 200 0 200 65 0 65 0 0
-175z m-4024 -302 c-3 -21 -8 -77 -11 -125 l-7 -88 -60 0 -60 0 6 38 c3 20 8
76 11 125 l7 87 60 0 60 0 -6 -37z"/>
</g>
</svg>
