<svg width="808" height="125" viewBox="0 0 808 125" fill="none" xmlns="http://www.w3.org/2000/svg">
<path d="M79.3374 121H34.1174C32.7574 121 31.3974 120.15 31.3974 118.11C31.3974 116.24 32.7574 115.39 34.1174 115.39C42.4474 115.39 47.3774 113.69 49.0774 110.46C49.7574 108.93 50.0974 106.38 50.0974 104.51V91.08H3.51738C1.30738 91.08 0.117383 89.89 0.117383 87.51V82.92C0.117383 81.56 0.627383 80.03 1.47738 78.5L57.5774 3.52999C59.6174 0.639999 63.6974 1.49 63.6974 5.4V80.88H80.0174C82.0574 80.88 83.0774 81.9 83.0774 83.94V88.19C83.0774 90.06 82.0574 91.08 80.0174 91.08H63.6974V105.7C63.6974 107.23 64.0374 108.59 64.5474 110.12C65.7374 113.35 68.4574 115.39 79.3374 115.39C80.8674 115.39 82.2274 116.24 82.2274 118.11C82.2274 120.15 80.8674 121 79.3374 121ZM50.0974 80.88V26.65L9.12738 80.88H50.0974ZM251.343 121H206.123C204.763 121 203.403 120.15 203.403 118.11C203.403 116.24 204.763 115.39 206.123 115.39C214.453 115.39 219.383 113.69 221.083 110.46C221.763 108.93 222.103 106.38 222.103 104.51V91.08H175.523C173.313 91.08 172.123 89.89 172.123 87.51V82.92C172.123 81.56 172.633 80.03 173.483 78.5L229.583 3.52999C231.623 0.639999 235.703 1.49 235.703 5.4V80.88H252.023C254.063 80.88 255.083 81.9 255.083 83.94V88.19C255.083 90.06 254.063 91.08 252.023 91.08H235.703V105.7C235.703 107.23 236.043 108.59 236.553 110.12C237.743 113.35 240.463 115.39 251.343 115.39C252.873 115.39 254.233 116.24 254.233 118.11C254.233 120.15 252.873 121 251.343 121ZM222.103 80.88V26.65L181.133 80.88H222.103ZM374.792 68.98H303.392V58.78H374.792V68.98ZM442.971 94.99V33.11C442.971 25.46 442.121 20.36 440.591 17.81C438.041 13.9 434.981 12.54 428.861 12.54H428.011C426.651 12.54 425.121 11.69 425.121 9.81999C425.121 7.95 426.651 6.93 428.011 6.93H511.141L511.991 30.56C511.991 34.13 507.571 35.32 506.721 31.24C505.361 26.31 502.981 21.04 497.031 17.81C493.121 15.26 488.021 14.24 480.031 14.24H455.891V57.93H476.631C489.551 57.93 494.141 54.36 494.141 42.8C494.141 41.27 494.991 39.91 496.861 39.91C498.731 39.91 499.411 41.27 499.411 42.8V81.22C499.411 82.58 498.731 84.11 496.861 84.11C494.991 84.11 494.141 82.58 494.141 81.22C494.141 69.66 489.551 66.09 476.631 66.09H455.891V97.71C455.891 105.87 456.061 108.42 457.591 110.63C458.951 112.67 460.481 113.52 464.561 113.52H480.881C490.571 113.52 496.181 113.01 501.451 109.44C506.721 106.04 511.991 99.24 515.221 92.44C516.581 89.21 521.511 90.57 520.151 94.31L510.631 121H428.011C426.651 121 425.121 119.98 425.121 118.11C425.121 116.24 426.651 115.39 428.011 115.39H428.861C435.491 115.39 438.211 113.69 440.421 110.46C442.121 107.74 442.971 102.64 442.971 94.99ZM569.934 47.9C566.364 47.9 560.074 54.87 554.464 65.07V102.81C554.464 112.5 557.694 115.56 565.004 115.56H565.684C567.554 115.56 568.574 116.41 568.574 118.11C568.574 119.98 567.554 121 565.684 121H530.664C528.794 121 527.944 119.98 527.944 118.11C527.944 116.41 528.794 115.56 530.664 115.56H531.344C538.654 115.56 542.054 112.5 542.054 102.81V51.81C542.054 50.11 541.034 48.92 539.164 48.24C537.464 47.39 534.404 47.22 530.154 47.73C526.584 48.58 525.224 43.31 528.794 42.46L549.364 36H552.254C553.784 36 554.464 36.68 554.464 38.04V54.7C561.094 43.31 568.914 34.98 579.794 35.15C586.084 35.32 589.994 39.57 589.994 44.84C589.994 50.79 587.104 54.53 581.154 54.02C578.604 53.85 576.564 52.83 574.694 50.62C572.824 48.58 571.804 47.9 569.934 47.9ZM634.354 47.9C630.784 47.9 624.494 54.87 618.884 65.07V102.81C618.884 112.5 622.114 115.56 629.424 115.56H630.104C631.974 115.56 632.994 116.41 632.994 118.11C632.994 119.98 631.974 121 630.104 121H595.084C593.214 121 592.364 119.98 592.364 118.11C592.364 116.41 593.214 115.56 595.084 115.56H595.764C603.074 115.56 606.474 112.5 606.474 102.81V51.81C606.474 50.11 605.454 48.92 603.584 48.24C601.884 47.39 598.824 47.22 594.574 47.73C591.004 48.58 589.644 43.31 593.214 42.46L613.784 36H616.674C618.204 36 618.884 36.68 618.884 38.04V54.7C625.514 43.31 633.334 34.98 644.214 35.15C650.504 35.32 654.414 39.57 654.414 44.84C654.414 50.79 651.524 54.53 645.574 54.02C643.024 53.85 640.984 52.83 639.114 50.62C637.244 48.58 636.224 47.9 634.354 47.9ZM657.295 80.03C657.295 50.79 677.015 35.15 697.245 35.15C717.305 35.15 737.195 50.79 737.195 80.03C737.195 108.93 717.305 124.91 697.245 124.91C677.015 124.91 657.295 108.93 657.295 80.03ZM671.405 80.03C671.405 103.66 683.135 117.09 697.245 117.09C711.355 117.09 723.085 103.66 723.085 80.03C723.085 56.23 711.355 42.8 697.245 42.8C683.135 42.8 671.405 56.23 671.405 80.03ZM787.932 47.9C784.362 47.9 778.072 54.87 772.462 65.07V102.81C772.462 112.5 775.692 115.56 783.002 115.56H783.682C785.552 115.56 786.572 116.41 786.572 118.11C786.572 119.98 785.552 121 783.682 121H748.662C746.792 121 745.942 119.98 745.942 118.11C745.942 116.41 746.792 115.56 748.662 115.56H749.342C756.652 115.56 760.052 112.5 760.052 102.81V51.81C760.052 50.11 759.032 48.92 757.162 48.24C755.462 47.39 752.402 47.22 748.152 47.73C744.582 48.58 743.222 43.31 746.792 42.46L767.362 36H770.252C771.782 36 772.462 36.68 772.462 38.04V54.7C779.092 43.31 786.912 34.98 797.792 35.15C804.082 35.32 807.992 39.57 807.992 44.84C807.992 50.79 805.102 54.53 799.152 54.02C796.602 53.85 794.562 52.83 792.692 50.62C790.822 48.58 789.802 47.9 787.932 47.9Z" fill="black"/>
<path d="M125.9 116.41C141.37 116.41 151.91 96.86 151.91 64.05C151.91 33.11 141.37 11.52 125.9 11.52C110.26 11.52 99.7201 33.11 99.7201 64.05C99.7201 95.16 110.26 116.41 125.9 116.41ZM125.9 124.91C99.5501 124.91 84.9301 97.37 84.9301 64.05C84.9301 30.56 99.8901 3.02 125.9 3.02C152.08 3.02 166.7 30.73 166.7 64.05C166.7 97.37 152.08 124.91 125.9 124.91Z" fill="#DD0505"/>
</svg>
