<svg width="509" height="80" viewBox="0 0 509 80" fill="none" xmlns="http://www.w3.org/2000/svg">
<path d="M8.93 48.76V19.56C8.93 16.36 8.69 13.56 7.81 12.36C6.85 11 5.25 9.96 2.29 9.96H1.81C0.930003 9.96 0.530003 9.56 0.530003 8.68C0.530003 7.8 0.930003 7.32 1.81 7.32H20.69C38.69 7.32 42.53 15.08 42.53 22.12C42.53 29.16 38.69 36.92 20.69 36.92H15.01V48.76C15.01 52.04 15.33 54.84 16.21 56.04C17.09 57.32 18.69 58.36 21.65 58.36H22.53C23.17 58.36 23.81 58.76 23.81 59.64C23.81 60.52 23.17 61 22.53 61H1.81C0.930003 61 0.530003 60.52 0.530003 59.64C0.530003 58.76 0.930003 58.36 1.81 58.36H2.29C5.25 58.36 6.85 57.32 7.81 56.04C8.69 54.84 8.93 52.04 8.93 48.76ZM35.73 22.04C35.73 16.12 32.85 11.08 19.65 11.08H15.01V33.16H19.65C32.85 33.16 35.73 27.8 35.73 22.04ZM63.3363 23.72C60.0563 23.64 58.0563 24.36 56.7763 25.56C55.5763 26.6 54.6163 27.96 54.6163 30.44C54.6163 32.76 53.0163 33.88 50.8563 34.2C48.6163 34.52 47.3363 33 47.5763 30.76C48.2163 23.88 57.0163 20.36 63.4963 20.6C71.8163 20.84 75.7363 23.8 75.7363 31.48V55.08C75.7363 57.32 76.6963 57.72 78.2163 57.72C79.2563 57.72 80.2963 57.4 81.3363 56.68C82.3763 56.04 83.5763 57.08 82.6963 58.44C80.8563 61 78.0563 62.6 75.8963 62.6C73.0963 62.6 70.5363 61.16 69.9763 56.68C66.6163 59.8 61.3363 62.84 55.1763 62.84C49.1763 62.84 45.8163 57.96 46.0563 52.92C46.2963 48.68 47.7363 44.68 53.7363 41.88C59.1763 39.32 63.8163 37.8 69.8963 36.52V31.48C69.8963 25.08 66.7763 23.72 63.3363 23.72ZM57.8163 58.2C61.8963 58.44 66.1363 57 69.8963 53.24V39.64C65.4963 40.84 61.5763 42.2 58.1363 43.88C54.5363 45.72 53.1763 48.2 53.2563 52.04C53.3363 55.16 55.0163 57.96 57.8163 58.2ZM119.784 27.08H113.544C114.584 28.92 115.224 31.16 115.224 33.64C115.224 41.88 108.664 46.68 100.424 46.68C98.8244 46.68 97.3044 46.52 95.8644 46.2C92.9844 48.12 91.8644 50.04 91.8644 51.24C91.8644 52.68 92.8244 53.48 94.6644 53.56L110.344 54.36C117.384 54.68 121.144 59.24 120.824 64.76C120.424 73 112.184 78.84 100.504 79.08C91.7844 79.32 83.4644 75.64 83.4644 67.72C83.4644 64.12 86.3444 61.24 89.5444 59.32C87.3044 58.6 85.8644 56.44 85.8644 53.56C85.8644 50.04 88.4244 47.24 92.6644 45C88.4244 42.84 85.6244 39.08 85.6244 33.64C85.6244 25.4 91.8644 20.6 100.424 20.6C104.264 20.6 107.544 21.56 110.184 23.4H119.784C120.744 23.4 121.464 24.04 121.464 25V25.48C121.464 26.52 120.904 27.08 119.784 27.08ZM108.024 60.28L93.5444 59.72C91.0644 61.88 89.4644 64.12 89.4644 66.76C89.4644 71.72 95.7044 75.16 102.104 74.92C112.024 74.68 116.184 70.2 116.184 65.96C116.184 62.68 114.184 60.52 108.024 60.28ZM91.9444 33.48C91.9444 39.96 95.9444 43.48 100.424 43.48C104.344 43.48 108.904 39.96 108.904 33.48C108.904 27.08 104.824 23.88 100.424 23.88C95.9444 23.88 91.9444 27.08 91.9444 33.48ZM156.165 37.88H130.885C130.725 39.08 130.645 40.28 130.645 41.32C130.645 51.8 136.565 58.36 142.405 58.36C147.445 58.44 151.685 55.88 155.045 50.6C155.925 49.08 157.845 50.2 157.205 51.72C154.885 58.12 149.445 62.84 141.445 62.84C132.405 62.84 124.085 55.08 124.085 41.48C124.085 27.64 132.565 20.84 141.685 20.6C150.645 20.36 157.685 27.56 157.685 36.2C157.685 37.32 157.205 37.88 156.165 37.88ZM141.685 23.72C136.325 23.96 133.045 29.32 131.525 34.84H151.045C151.045 29.72 147.765 23.48 141.685 23.72ZM186.741 52.44V28.44C186.741 27.64 186.261 27.08 185.381 26.76C184.581 26.36 183.141 26.28 181.141 26.52C179.461 26.92 178.821 24.44 180.501 24.04L190.181 21H191.541C192.261 21 192.581 21.32 192.581 21.96V26.36C196.181 23.08 201.061 20.6 205.541 20.6C216.661 20.6 217.381 28.92 217.381 37.48V52.44C217.381 57 218.901 58.44 222.341 58.44H222.661C223.541 58.44 224.021 58.84 224.021 59.64C224.021 60.52 223.541 61 222.661 61H206.181C205.301 61 204.901 60.52 204.901 59.64C204.901 58.84 205.301 58.44 206.181 58.44H206.501C209.941 58.44 211.541 57 211.541 52.44V37.8C211.541 31.24 211.621 25.24 204.021 25.24C200.581 25.24 196.421 27 192.581 30.44V52.44C192.581 57 194.101 58.44 197.541 58.44H197.861C198.741 58.44 199.221 58.84 199.221 59.64C199.221 60.52 198.741 61 197.861 61H181.381C180.501 61 180.101 60.52 180.101 59.64C180.101 58.84 180.501 58.44 181.381 58.44H181.701C185.141 58.44 186.741 57 186.741 52.44ZM225.344 41.72C225.344 27.96 234.624 20.6 244.144 20.6C253.584 20.6 262.944 27.96 262.944 41.72C262.944 55.32 253.584 62.84 244.144 62.84C234.624 62.84 225.344 55.32 225.344 41.72ZM231.984 41.72C231.984 52.84 237.504 59.16 244.144 59.16C250.784 59.16 256.304 52.84 256.304 41.72C256.304 30.52 250.784 24.2 244.144 24.2C237.504 24.2 231.984 30.52 231.984 41.72ZM286.51 25.16H279.31V53.08C279.31 56.84 280.35 58.2 282.67 57.96C284.99 57.72 286.99 56.84 288.59 55.32C289.63 54.44 291.07 55.48 290.35 56.84C288.51 59.72 285.07 62.6 280.91 62.84C277.23 63.08 273.39 61.24 273.39 53.96V25.16H266.35C264.43 25.16 264.43 22.68 266.35 22.44C269.15 22.2 272.11 20.28 273.71 17.64C275.07 15.4 275.95 13.08 276.27 9.88C276.35 8.76 276.83 8.2 277.87 8.2C278.83 8.2 279.31 8.76 279.31 9.88V21.72H286.51C287.71 21.72 288.27 22.6 288.27 23.48C288.27 24.36 287.71 25.16 286.51 25.16ZM323.933 25.4V52.44C323.933 57 325.453 58.44 328.893 58.44H330.093C330.813 58.44 331.453 58.76 331.453 59.64C331.453 60.6 330.813 61 330.093 61H312.813C311.933 61 311.453 60.52 311.453 59.64C311.453 58.84 311.933 58.44 312.813 58.44H313.133C316.573 58.44 318.093 57 318.093 52.44V25.4H311.373C310.253 25.4 309.693 24.76 309.693 23.56C309.693 22.6 310.333 21.88 311.373 21.88H318.093V17.32C318.093 7.32 322.653 0.359999 332.173 0.119997C335.453 0.0399981 338.013 1.08 340.173 2.68C341.613 3.8 342.573 5.08 343.053 6.52C343.613 8.2 343.213 10.36 341.373 11C339.773 11.64 337.373 11 336.733 9.08C335.773 6.2 333.613 3.24 330.013 3.56C324.173 4.2 323.933 14.52 323.933 18.12V21.88H332.973C334.013 21.88 334.653 22.6 334.653 23.56C334.653 24.76 334.093 25.4 332.973 25.4H323.933ZM337.701 41.72C337.701 27.96 346.981 20.6 356.501 20.6C365.941 20.6 375.301 27.96 375.301 41.72C375.301 55.32 365.941 62.84 356.501 62.84C346.981 62.84 337.701 55.32 337.701 41.72ZM344.341 41.72C344.341 52.84 349.861 59.16 356.501 59.16C363.141 59.16 368.661 52.84 368.661 41.72C368.661 30.52 363.141 24.2 356.501 24.2C349.861 24.2 344.341 30.52 344.341 41.72ZM409.106 61.56V57.08C405.506 60.68 400.466 62.84 395.986 62.84C385.106 62.84 384.386 55.08 384.386 46.6V30.92C384.386 26.92 382.706 24.92 379.426 24.92H379.026C377.266 24.92 377.106 22.76 378.706 22.36L388.786 20.68C389.666 20.44 390.226 20.92 390.226 21.64V45.72C390.226 52.12 390.386 58.28 397.506 58.28C400.706 58.28 405.186 57 409.106 53.24V30.92C409.106 26.92 407.426 24.92 404.146 24.92H403.746C401.986 24.92 401.906 22.76 403.346 22.36L413.506 20.68C414.386 20.44 414.946 20.92 414.946 21.64V52.44C414.946 56.6 416.386 58.44 419.826 58.44H420.386C422.146 58.44 422.226 60.68 420.706 60.92L410.386 62.76C409.746 62.84 409.106 62.44 409.106 61.56ZM429.654 52.44V28.44C429.654 27.64 429.174 27.08 428.294 26.76C427.494 26.36 426.054 26.28 424.054 26.52C422.374 26.92 421.734 24.44 423.414 24.04L433.094 21H434.454C435.174 21 435.494 21.32 435.494 21.96V26.36C439.094 23.08 443.974 20.6 448.454 20.6C459.574 20.6 460.294 28.92 460.294 37.48V52.44C460.294 57 461.814 58.44 465.254 58.44H465.574C466.454 58.44 466.934 58.84 466.934 59.64C466.934 60.52 466.454 61 465.574 61H449.094C448.214 61 447.814 60.52 447.814 59.64C447.814 58.84 448.214 58.44 449.094 58.44H449.414C452.854 58.44 454.454 57 454.454 52.44V37.8C454.454 31.24 454.534 25.24 446.934 25.24C443.494 25.24 439.334 27 435.494 30.44V52.44C435.494 57 437.014 58.44 440.454 58.44H440.774C441.654 58.44 442.134 58.84 442.134 59.64C442.134 60.52 441.654 61 440.774 61H424.294C423.414 61 423.014 60.52 423.014 59.64C423.014 58.84 423.414 58.44 424.294 58.44H424.614C428.054 58.44 429.654 57 429.654 52.44ZM495.457 61.56V57.8C492.017 61.4 487.537 62.6 484.737 62.84C474.417 63.4 468.257 56.12 468.257 41.72C468.257 29.32 474.897 20.84 485.457 20.6C489.297 20.36 492.577 21.48 495.457 23.16V9.24C495.457 8.36 494.977 7.8 494.097 7.48C493.297 7.08 491.857 7.08 489.857 7.32C488.177 7.56 487.537 5.24 489.217 4.84L498.897 1.8H500.257C500.977 1.8 501.297 2.12 501.297 2.76V52.44C501.297 56.6 502.737 58.44 506.177 58.44H506.657C508.577 58.44 508.577 60.68 506.977 60.92L496.657 62.76C496.097 62.84 495.457 62.44 495.457 61.56ZM495.457 53.96V28.04C493.537 25.56 490.017 23.72 485.937 23.96C479.297 24.36 474.897 31.72 474.897 41.72C474.897 51.88 478.817 58.6 485.537 58.36C488.737 58.28 492.977 56.84 495.457 53.96Z" fill="black"/>
</svg>
